<?xml version="1.0" standalone="no"?><!DOCTYPE svg PUBLIC "-//W3C//DTD SVG 1.1//EN" "http://www.w3.org/Graphics/SVG/1.1/DTD/svg11.dtd"><svg t="1609666715116" class="icon" viewBox="0 0 1024 1024" version="1.1" xmlns="http://www.w3.org/2000/svg" p-id="1591" xmlns:xlink="http://www.w3.org/1999/xlink" width="200" height="200"><defs><style type="text/css"></style></defs><path d="M713.232652 100.784404c-76.030627 0-152.038742 35.765575-201.233164 93.891414-49.194422-58.125839-125.20356-93.891414-201.233164-93.891414-138.632407 0-245.951645 107.34175-245.951645 245.951645 0 169.922041 152.038742 308.574914 384.583029 514.26253l62.60178 58.125839 62.60178-58.125839c228.068346-210.185047 384.583029-348.794941 384.583029-514.26253C959.184297 208.125131 851.864036 100.784404 713.232652 100.784404zM516.47543 798.37531l-4.475941 0-4.475941-4.455475c-214.640522-192.280258-353.271906-317.483818-353.271906-447.184809 0-89.436962 67.077721-156.514683 156.514683-156.514683 61.350277 0 123.048477 37.213553 153.261593 91.707678 9.17087 16.541745 28.357861 15.634072 28.357861 15.634072l44.51382 0c0 0 17.907858 0.907673 25.350364-13.286608 28.593222-54.529941 88.751347-94.055143 150.98269-94.055143 89.435938 0 156.51366 67.077721 156.51366 156.514683C869.746312 476.436016 731.115951 601.639576 516.47543 798.37531z" p-id="1592" fill="#cdcdcd"></path></svg>